<?xml version="1.0" encoding="UTF-8"?>
<svg version="1.1" xmlns="http://www.w3.org/2000/svg" width="158" height="164">
<path d="M0 0 C52.14 0 104.28 0 158 0 C158 54.12 158 108.24 158 164 C105.86 164 53.72 164 0 164 C0 109.88 0 55.76 0 0 Z " fill="#FDFDFD" transform="translate(0,0)"/>
<path d="M0 0 C1.65 0 3.3 0 5 0 C5 1.65 5 3.3 5 5 C6.65 5 8.3 5 10 5 C10 6.65 10 8.3 10 10 C11.65 10 13.3 10 15 10 C15 11.32 15 12.64 15 14 C16.32 14 17.64 14 19 14 C19 12.68 19 11.36 19 10 C20.65 10 22.3 10 24 10 C24 8.35 24 6.7 24 5 C25.65 5 27.3 5 29 5 C29 6.65 29 8.3 29 10 C32.3 10 35.6 10 39 10 C39 12.97 39 15.94 39 19 C37.35 19 35.7 19 34 19 C34 20.65 34 22.3 34 24 C28.46828143 23.37139562 28.46828143 23.37139562 26.1875 21.5625 C22.82232466 19.15880333 19.01828864 18.72981738 15 18 C15 17.01 15 16.02 15 15 C13.35 15 11.7 15 10 15 C10.495 17.475 10.495 17.475 11 20 C9.68 20.33 8.36 20.66 7 21 C7 21.66 7 22.32 7 23 C6.34 23 5.68 23 5 23 C5 20.36 5 17.72 5 15 C3.35 15 1.7 15 0 15 C0 17.97 0 20.94 0 24 C-1.65 24 -3.3 24 -5 24 C-5 25.65 -5 27.3 -5 29 C-3.02 29 -1.04 29 1 29 C0.98839844 29.65226562 0.97679687 30.30453125 0.96484375 30.9765625 C0.92486066 34.84921039 0.91256165 38.4850853 1.5625 42.3125 C2.03026124 45.18589047 1.73984349 47.20503569 1 50 C1.66 50 2.32 50 3 50 C3.07832357 45.69220367 2.98532804 41.69386867 2.3125 37.4375 C1.71584502 32.79326665 2.82348582 30.09184666 5 26 C5.66 26 6.32 26 7 26 C7 25.34 7 24.68 7 24 C11.02308055 20.3931002 15.2784376 20.55343289 20.41015625 20.71875 C25.17530616 21.23623234 27.14321073 23.07374133 30.3125 26.5 C32.67342116 31.39672537 32.80346017 35.65389965 32 41 C30.92312211 43.69219472 29.6957697 45.61532386 28 48 C28.66 48.33 29.32 48.66 30 49 C29.67 51.97 29.34 54.94 29 58 C30.65 58 32.3 58 34 58 C34 54.7 34 51.4 34 48 C38.62 48 43.24 48 48 48 C48 46.68 48 45.36 48 44 C45.03 44 42.06 44 39 44 C39 42.35 39 40.7 39 39 C40.65 39 42.3 39 44 39 C44 37.35 44 35.7 44 34 C41.03 34 38.06 34 35 34 C34.67 32.35 34.34 30.7 34 29 C37.3 29 40.6 29 44 29 C44 27.35 44 25.7 44 24 C45.65 24 47.3 24 49 24 C49 25.65 49 27.3 49 29 C50.32 29 51.64 29 53 29 C53 27.35 53 25.7 53 24 C54.65 24 56.3 24 58 24 C58 27.3 58 30.6 58 34 C56.35 34 54.7 34 53 34 C53 35.65 53 37.3 53 39 C54.65 39 56.3 39 58 39 C58 41.97 58 44.94 58 48 C59.65 48 61.3 48 63 48 C63 49.65 63 51.3 63 53 C64.65 53 66.3 53 68 53 C68 54.65 68 56.3 68 58 C66.35 58 64.7 58 63 58 C63 59.65 63 61.3 63 63 C64.65 63 66.3 63 68 63 C68 66.3 68 69.6 68 73 C69.65 73 71.3 73 73 73 C73 71.35 73 69.7 73 68 C77.95 68 82.9 68 88 68 C88 72.95 88 77.9 88 83 C86.35 83 84.7 83 83 83 C83 84.65 83 86.3 83 88 C81.35 88 79.7 88 78 88 C78 89.65 78 91.3 78 93 C76.35 93 74.7 93 73 93 C73 94.32 73 95.64 73 97 C71.35 97 69.7 97 68 97 C68 98.65 68 100.3 68 102 C69.65 102 71.3 102 73 102 C73 103.65 73 105.3 73 107 C68.05 107 63.1 107 58 107 C58 105.35 58 103.7 58 102 C59.65 102 61.3 102 63 102 C63 100.35 63 98.7 63 97 C61.35 97 59.7 97 58 97 C58 94.03 58 91.06 58 88 C54.7 88 51.4 88 48 88 C48 89.32 48 90.64 48 92 C46.68 92 45.36 92 44 92 C44 84.08 44 76.16 44 68 C42.35 68 40.7 68 39 68 C39 66.35 39 64.7 39 63 C35.7 63 32.4 63 29 63 C29 64.65 29 66.3 29 68 C27.35 68 25.7 68 24 68 C24 69.65 24 71.3 24 73 C21.03 73 18.06 73 15 73 C15 74.65 15 76.3 15 78 C13.35 78 11.7 78 10 78 C10 76.35 10 74.7 10 73 C8.35 73 6.7 73 5 73 C5 76.3 5 79.6 5 83 C3.35 83 1.7 83 0 83 C0 81.35 0 79.7 0 78 C-1.65 78 -3.3 78 -5 78 C-5 79.65 -5 81.3 -5 83 C-6.65 83 -8.3 83 -10 83 C-10 79.7 -10 76.4 -10 73 C-11.65 73 -13.3 73 -15 73 C-15 71.35 -15 69.7 -15 68 C-19.95 68 -24.9 68 -30 68 C-30 66.35 -30 64.7 -30 63 C-31.32 63 -32.64 63 -34 63 C-34 64.65 -34 66.3 -34 68 C-35.65 68 -37.3 68 -39 68 C-39 66.35 -39 64.7 -39 63 C-42.3 63 -45.6 63 -49 63 C-49 61.35 -49 59.7 -49 58 C-47.35 58 -45.7 58 -44 58 C-44 56.35 -44 54.7 -44 53 C-42.35 53 -40.7 53 -39 53 C-39 54.65 -39 56.3 -39 58 C-37.35 58 -35.7 58 -34 58 C-34 54.7 -34 51.4 -34 48 C-40.6 48 -47.2 48 -54 48 C-54 46.68 -54 45.36 -54 44 C-52.35 44 -50.7 44 -49 44 C-49 42.35 -49 40.7 -49 39 C-50.65 39 -52.3 39 -54 39 C-54 35.7 -54 32.4 -54 29 C-52.35 29 -50.7 29 -49 29 C-49 27.35 -49 25.7 -49 24 C-50.65 24 -52.3 24 -54 24 C-54 20.7 -54 17.4 -54 14 C-52.35 14 -50.7 14 -49 14 C-49 12.68 -49 11.36 -49 10 C-47.35 10 -45.7 10 -44 10 C-44 11.65 -44 13.3 -44 15 C-45.65 15 -47.3 15 -49 15 C-49 16.32 -49 17.64 -49 19 C-47.35 19 -45.7 19 -44 19 C-44 22.3 -44 25.6 -44 29 C-42.35 29 -40.7 29 -39 29 C-39 24.05 -39 19.1 -39 14 C-37.35 14 -35.7 14 -34 14 C-34 22.25 -34 30.5 -34 39 C-37.3 39 -40.6 39 -44 39 C-44 40.65 -44 42.3 -44 44 C-39.38 44 -34.76 44 -30 44 C-30 42.35 -30 40.7 -30 39 C-28.35 39 -26.7 39 -25 39 C-25 37.35 -25 35.7 -25 34 C-26.65 34 -28.3 34 -30 34 C-30 32.35 -30 30.7 -30 29 C-28.35 29 -26.7 29 -25 29 C-25 27.35 -25 25.7 -25 24 C-26.65 24 -28.3 24 -30 24 C-30 19.38 -30 14.76 -30 10 C-31.32 10 -32.64 10 -34 10 C-34 8.35 -34 6.7 -34 5 C-32.35 5 -30.7 5 -29 5 C-29 6.65 -29 8.3 -29 10 C-27.68 10 -26.36 10 -25 10 C-25 8.35 -25 6.7 -25 5 C-24.01 5 -23.02 5 -22 5 C-22 6.32 -22 7.64 -22 9 C-22.66 9 -23.32 9 -24 9 C-24 10.65 -24 12.3 -24 14 C-22.68 14 -21.36 14 -20 14 C-20 12.68 -20 11.36 -20 10 C-16.7 10 -13.4 10 -10 10 C-10 11.32 -10 12.64 -10 14 C-8.35 14 -6.7 14 -5 14 C-5 12.68 -5 11.36 -5 10 C-3.35 10 -1.7 10 0 10 C0 6.7 0 3.4 0 0 Z " fill="#FDFDFD" transform="translate(63,45)"/>
<path d="M0 0 C1.65 0 3.3 0 5 0 C5 1.65 5 3.3 5 5 C6.32 5 7.64 5 9 5 C9 3.35 9 1.7 9 0 C10.65 0 12.3 0 14 0 C14 3.3 14 6.6 14 10 C12.35 10 10.7 10 9 10 C9 11.65 9 13.3 9 15 C10.65 15 12.3 15 14 15 C14 17.97 14 20.94 14 24 C15.65 24 17.3 24 19 24 C19 25.65 19 27.3 19 29 C20.65 29 22.3 29 24 29 C24 30.65 24 32.3 24 34 C22.35 34 20.7 34 19 34 C19 35.65 19 37.3 19 39 C20.65 39 22.3 39 24 39 C24 42.3 24 45.6 24 49 C25.65 49 27.3 49 29 49 C29 47.35 29 45.7 29 44 C33.95 44 38.9 44 44 44 C44 48.95 44 53.9 44 59 C42.35 59 40.7 59 39 59 C39 60.65 39 62.3 39 64 C37.35 64 35.7 64 34 64 C34 65.65 34 67.3 34 69 C32.35 69 30.7 69 29 69 C29 70.32 29 71.64 29 73 C27.35 73 25.7 73 24 73 C24 74.65 24 76.3 24 78 C25.65 78 27.3 78 29 78 C29 79.65 29 81.3 29 83 C24.05 83 19.1 83 14 83 C14 81.35 14 79.7 14 78 C15.65 78 17.3 78 19 78 C19 76.35 19 74.7 19 73 C17.35 73 15.7 73 14 73 C14 70.03 14 67.06 14 64 C10.7 64 7.4 64 4 64 C4 65.32 4 66.64 4 68 C2.68 68 1.36 68 0 68 C0 60.08 0 52.16 0 44 C-1.65 44 -3.3 44 -5 44 C-5 42.35 -5 40.7 -5 39 C-8.3 39 -11.6 39 -15 39 C-15 40.65 -15 42.3 -15 44 C-16.65 44 -18.3 44 -20 44 C-20 45.65 -20 47.3 -20 49 C-22.97 49 -25.94 49 -29 49 C-29 45.7 -29 42.4 -29 39 C-30.65 39 -32.3 39 -34 39 C-34 37.35 -34 35.7 -34 34 C-32.35 34 -30.7 34 -29 34 C-29 32.35 -29 30.7 -29 29 C-28.32453125 28.87882812 -27.6490625 28.75765625 -26.953125 28.6328125 C-26.06109375 28.46523437 -25.1690625 28.29765625 -24.25 28.125 C-22.92742187 27.88136719 -22.92742187 27.88136719 -21.578125 27.6328125 C-18.67186315 27.02018916 -18.67186315 27.02018916 -15 25 C-15 27.97 -15 30.94 -15 34 C-13.35 34 -11.7 34 -10 34 C-10 30.7 -10 27.4 -10 24 C-5.38 24 -0.76 24 4 24 C4 22.68 4 21.36 4 20 C1.03 20 -1.94 20 -5 20 C-5 18.35 -5 16.7 -5 15 C-3.35 15 -1.7 15 0 15 C0 13.35 0 11.7 0 10 C-2.97 10 -5.94 10 -9 10 C-9.33 8.35 -9.66 6.7 -10 5 C-6.7 5 -3.4 5 0 5 C0 3.35 0 1.7 0 0 Z " fill="#060606" transform="translate(107,69)"/>
<path d="M0 0 C1.65 0 3.3 0 5 0 C5 1.65 5 3.3 5 5 C3.35 5 1.7 5 0 5 C0 6.32 0 7.64 0 9 C1.65 9 3.3 9 5 9 C5 12.3 5 15.6 5 19 C6.65 19 8.3 19 10 19 C10 14.05 10 9.1 10 4 C11.65 4 13.3 4 15 4 C15 12.25 15 20.5 15 29 C11.7 29 8.4 29 5 29 C5 30.65 5 32.3 5 34 C9.62 34 14.24 34 19 34 C19 32.35 19 30.7 19 29 C20.65 29 22.3 29 24 29 C24 27.35 24 25.7 24 24 C25.65 24 27.3 24 29 24 C29 25.65 29 27.3 29 29 C27.68 29 26.36 29 25 29 C25 30.65 25 32.3 25 34 C26.65 34 28.3 34 30 34 C30 32.35 30 30.7 30 29 C31.32 29 32.64 29 34 29 C34 30.65 34 32.3 34 34 C37.3 34 40.6 34 44 34 C44 35.32 44 36.64 44 38 C36.08 38 28.16 38 20 38 C20 42.95 20 47.9 20 53 C24.62 53 29.24 53 34 53 C34 49.7 34 46.4 34 43 C35.65 43 37.3 43 39 43 C39 44.65 39 46.3 39 48 C42.3 48 45.6 48 49 48 C49.33 46.35 49.66 44.7 50 43 C51.32 43 52.64 43 54 43 C54 46.3 54 49.6 54 53 C50.7 53 47.4 53 44 53 C44 54.65 44 56.3 44 58 C45.65 58 47.3 58 49 58 C49 59.65 49 61.3 49 63 C50.65 63 52.3 63 54 63 C54 66.3 54 69.6 54 73 C52.35 73 50.7 73 49 73 C49 71.35 49 69.7 49 68 C47.35 68 45.7 68 44 68 C44 69.65 44 71.3 44 73 C42.35 73 40.7 73 39 73 C39 69.7 39 66.4 39 63 C37.35 63 35.7 63 34 63 C34 61.35 34 59.7 34 58 C29.05 58 24.1 58 19 58 C19 56.35 19 54.7 19 53 C17.68 53 16.36 53 15 53 C15 54.65 15 56.3 15 58 C13.35 58 11.7 58 10 58 C10 56.35 10 54.7 10 53 C6.7 53 3.4 53 0 53 C0 51.35 0 49.7 0 48 C1.65 48 3.3 48 5 48 C5 46.35 5 44.7 5 43 C6.65 43 8.3 43 10 43 C10 44.65 10 46.3 10 48 C11.65 48 13.3 48 15 48 C15 44.7 15 41.4 15 38 C8.4 38 1.8 38 -5 38 C-5 36.68 -5 35.36 -5 34 C-3.35 34 -1.7 34 0 34 C0 32.35 0 30.7 0 29 C-1.65 29 -3.3 29 -5 29 C-5 25.7 -5 22.4 -5 19 C-3.35 19 -1.7 19 0 19 C0 17.35 0 15.7 0 14 C-1.65 14 -3.3 14 -5 14 C-5 10.7 -5 7.4 -5 4 C-3.35 4 -1.7 4 0 4 C0 2.68 0 1.36 0 0 Z " fill="#030303" transform="translate(14,55)"/>
<path d="M0 0 C11.55 0 23.1 0 35 0 C35 11.22 35 22.44 35 34 C23.45 34 11.9 34 0 34 C0 22.78 0 11.56 0 0 Z " fill="#080808" transform="translate(9,118)"/>
<path d="M0 0 C11.55 0 23.1 0 35 0 C35 11.22 35 22.44 35 34 C23.45 34 11.9 34 0 34 C0 22.78 0 11.56 0 0 Z " fill="#FAFAFA" transform="translate(116,11)"/>
<path d="M0 0 C11.55 0 23.1 0 35 0 C35 11.22 35 22.44 35 34 C23.45 34 11.9 34 0 34 C0 22.78 0 11.56 0 0 Z " fill="#0A0A0A" transform="translate(9,11)"/>
<path d="M0 0 C1.65 0 3.3 0 5 0 C5 1.65 5 3.3 5 5 C6.65 5 8.3 5 10 5 C10 6.65 10 8.3 10 10 C11.65 10 13.3 10 15 10 C15 11.32 15 12.64 15 14 C16.32 14 17.64 14 19 14 C19 12.68 19 11.36 19 10 C20.65 10 22.3 10 24 10 C24 8.35 24 6.7 24 5 C25.65 5 27.3 5 29 5 C29 6.65 29 8.3 29 10 C32.3 10 35.6 10 39 10 C39 12.97 39 15.94 39 19 C37.35 19 35.7 19 34 19 C34 20.65 34 22.3 34 24 C28.46828143 23.37139562 28.46828143 23.37139562 26.1875 21.5625 C22.82232466 19.15880333 19.01828864 18.72981738 15 18 C15 17.01 15 16.02 15 15 C13.35 15 11.7 15 10 15 C10.495 17.475 10.495 17.475 11 20 C9.68 20.33 8.36 20.66 7 21 C7 21.66 7 22.32 7 23 C6.34 23 5.68 23 5 23 C5 20.36 5 17.72 5 15 C3.35 15 1.7 15 0 15 C0 17.97 0 20.94 0 24 C-1.65 24 -3.3 24 -5 24 C-5 25.65 -5 27.3 -5 29 C-3.02 29 -1.04 29 1 29 C0.98839844 29.65226562 0.97679687 30.30453125 0.96484375 30.9765625 C0.92420845 34.91238159 0.91873897 38.55306432 1.625 42.4375 C2 45 2 45 0 48 C0 46.68 0 45.36 0 44 C-1.32 44 -2.64 44 -4 44 C-4 42.02 -4 40.04 -4 38 C-6.1490712 36.7391254 -6.1490712 36.7391254 -9.5 37 C-13 37 -13 37 -15 36 C-15 35.34 -15 34.68 -15 34 C-16.32 34 -17.64 34 -19 34 C-19 31.69 -19 29.38 -19 27 C-19.61875 27.185625 -20.2375 27.37125 -20.875 27.5625 C-23 28 -23 28 -25 27 C-25 26.01 -25 25.02 -25 24 C-26.65 24 -28.3 24 -30 24 C-30 19.38 -30 14.76 -30 10 C-31.32 10 -32.64 10 -34 10 C-34 8.35 -34 6.7 -34 5 C-32.35 5 -30.7 5 -29 5 C-29 6.65 -29 8.3 -29 10 C-27.68 10 -26.36 10 -25 10 C-25 8.35 -25 6.7 -25 5 C-24.01 5 -23.02 5 -22 5 C-22 6.32 -22 7.64 -22 9 C-22.66 9 -23.32 9 -24 9 C-24 10.65 -24 12.3 -24 14 C-22.68 14 -21.36 14 -20 14 C-20 12.68 -20 11.36 -20 10 C-16.7 10 -13.4 10 -10 10 C-10 11.32 -10 12.64 -10 14 C-8.35 14 -6.7 14 -5 14 C-5 12.68 -5 11.36 -5 10 C-3.35 10 -1.7 10 0 10 C0 6.7 0 3.4 0 0 Z " fill="#030303" transform="translate(63,45)"/>
<path d="M0 0 C3.3 0 6.6 0 10 0 C10 1.32 10 2.64 10 4 C13.3 4 16.6 4 20 4 C20 2.68 20 1.36 20 0 C21.65 0 23.3 0 25 0 C25 1.32 25 2.64 25 4 C28.3 4 31.6 4 35 4 C35 2.68 35 1.36 35 0 C36.65 0 38.3 0 40 0 C40 2.97 40 5.94 40 9 C38.35 9 36.7 9 35 9 C35 10.65 35 12.3 35 14 C36.65 14 38.3 14 40 14 C40 18.95 40 23.9 40 29 C38.35 29 36.7 29 35 29 C35 30.65 35 32.3 35 34 C36.65 34 38.3 34 40 34 C40 38.62 40 43.24 40 48 C38.35 48 36.7 48 35 48 C35 49.65 35 51.3 35 53 C33.35 53 31.7 53 30 53 C30 49.7 30 46.4 30 43 C26.7 43 23.4 43 20 43 C20 40.03 20 37.06 20 34 C18.35 34 16.7 34 15 34 C15 32.35 15 30.7 15 29 C16.65 29 18.3 29 20 29 C20 24.05 20 19.1 20 14 C18.35 14 16.7 14 15 14 C15 12.35 15 10.7 15 9 C8.73 9 2.46 9 -4 9 C-4 7.35 -4 5.7 -4 4 C-2.68 4 -1.36 4 0 4 C0 2.68 0 1.36 0 0 Z " fill="#040404" transform="translate(111,55)"/>
<path d="M0 0 C11.55 0 23.1 0 35 0 C35 11.22 35 22.44 35 34 C23.45 34 11.9 34 0 34 C0 22.78 0 11.56 0 0 Z M5 5 C5 12.92 5 20.84 5 29 C13.25 29 21.5 29 30 29 C30 21.08 30 13.16 30 5 C21.75 5 13.5 5 5 5 Z " fill="#050505" transform="translate(116,11)"/>
<path d="M0 0 C7.92 0 15.84 0 24 0 C24 7.92 24 15.84 24 24 C16.08 24 8.16 24 0 24 C0 16.08 0 8.16 0 0 Z " fill="#F9F9F9" transform="translate(14,123)"/>
<path d="M0 0 C7.92 0 15.84 0 24 0 C24 7.92 24 15.84 24 24 C16.08 24 8.16 24 0 24 C0 16.08 0 8.16 0 0 Z " fill="#FEFEFE" transform="translate(14,16)"/>
<path d="M0 0 C1.98 0 3.96 0 6 0 C6 2.31 6 4.62 6 7 C7.32 7 8.64 7 10 7 C10 7.66 10 8.32 10 9 C13.96 9 17.92 9 22 9 C21.67 11.64 21.34 14.28 21 17 C22.32 17 23.64 17 25 17 C25.33 18.98 25.66 20.96 26 23 C27.65 23 29.3 23 31 23 C30.505 24.485 30.505 24.485 30 26 C27.9375 26.6875 27.9375 26.6875 26 27 C25.67 28.32 25.34 29.64 25 31 C21.7 31 18.4 31 15 31 C15 29.35 15 27.7 15 26 C13.35 26 11.7 26 10 26 C10 29.3 10 32.6 10 36 C5.38 36 0.76 36 -4 36 C-4 31.05 -4 26.1 -4 21 C3.92 21 11.84 21 20 21 C20 19.68 20 18.36 20 17 C16.7 17 13.4 17 10 17 C10 15.35 10 13.7 10 12 C8.68 12 7.36 12 6 12 C6 13.65 6 15.3 6 17 C4.35 17 2.7 17 1 17 C1 15.35 1 13.7 1 12 C2.32 12 3.64 12 5 12 C5 10.35 5 8.7 5 7 C1.7 7 -1.6 7 -5 7 C-5 5.35 -5 3.7 -5 2 C-3.35 2 -1.7 2 0 2 C0 1.34 0 0.68 0 0 Z " fill="#FBFBFB" transform="translate(38,72)"/>
<path d="M0 0 C1.65 0 3.3 0 5 0 C5 1.65 5 3.3 5 5 C6.32 5 7.64 5 9 5 C9 3.35 9 1.7 9 0 C10.65 0 12.3 0 14 0 C14 3.3 14 6.6 14 10 C12.35 10 10.7 10 9 10 C9 11.65 9 13.3 9 15 C10.65 15 12.3 15 14 15 C14 17.97 14 20.94 14 24 C15.65 24 17.3 24 19 24 C19 25.65 19 27.3 19 29 C20.65 29 22.3 29 24 29 C24 30.65 24 32.3 24 34 C22.35 34 20.7 34 19 34 C19 35.65 19 37.3 19 39 C16.525 39.495 16.525 39.495 14 40 C14 38.02 14 36.04 14 34 C12.35 34 10.7 34 9 34 C9 30.7 9 27.4 9 24 C7.68 24.33 6.36 24.66 5 25 C4.67 25.99 4.34 26.98 4 28 C0.04 28.33 -3.92 28.66 -8 29 C-8 27.35 -8 25.7 -8 24 C-4.04 24 -0.08 24 4 24 C4 22.68 4 21.36 4 20 C1.03 20 -1.94 20 -5 20 C-5 18.35 -5 16.7 -5 15 C-3.35 15 -1.7 15 0 15 C0 13.35 0 11.7 0 10 C-2.97 10 -5.94 10 -9 10 C-9.33 8.35 -9.66 6.7 -10 5 C-6.7 5 -3.4 5 0 5 C0 3.35 0 1.7 0 0 Z " fill="#040404" transform="translate(107,69)"/>
<path d="M0 0 C1.65 0 3.3 0 5 0 C5 7.92 5 15.84 5 24 C3.35 24 1.7 24 0 24 C0 25.65 0 27.3 0 29 C-1.65 29 -3.3 29 -5 29 C-5 27.35 -5 25.7 -5 24 C-6.32 24 -7.64 24 -9 24 C-9 22.35 -9 20.7 -9 19 C-12.3 19 -15.6 19 -19 19 C-19 20.65 -19 22.3 -19 24 C-20.65 24 -22.3 24 -24 24 C-24 22.35 -24 20.7 -24 19 C-27.3 19 -30.6 19 -34 19 C-34 17.68 -34 16.36 -34 15 C-32.35 15 -30.7 15 -29 15 C-29 13.35 -29 11.7 -29 10 C-27.35 10 -25.7 10 -24 10 C-24 11.65 -24 13.3 -24 15 C-22.35 15 -20.7 15 -19 15 C-19 11.7 -19 8.4 -19 5 C-17.35 5 -15.7 5 -14 5 C-14 6.65 -14 8.3 -14 10 C-12.35 10 -10.7 10 -9 10 C-9 8.35 -9 6.7 -9 5 C-6.03 5 -3.06 5 0 5 C0 3.35 0 1.7 0 0 Z " fill="#FDFDFD" transform="translate(87,113)"/>
<path d="M0 0 C3.27380489 2.63327784 5.41484692 5.12677527 7 9 C7.33797952 13.84437312 6.65229503 17.17604838 3.625 21 C-1.20849397 24.68266207 -6.27527866 24.40607864 -12.078125 23.7734375 C-13.72232511 23.53950659 -15.36183824 23.27302696 -17 23 C-16.979375 22.05125 -16.95875 21.1025 -16.9375 20.125 C-16.77448174 17.09333717 -16.77448174 17.09333717 -18 15 C-18.5499739 9.28027145 -17.54794766 6.48711028 -14 2 C-10.08314369 -1.91685631 -5.13761365 -1.50144971 0 0 Z " fill="#F9F9F9" transform="translate(86,69)"/>
<path d="M0 0 C1.65 0 3.3 0 5 0 C5 1.65 5 3.3 5 5 C6.65 5 8.3 5 10 5 C10 6.98 10 8.96 10 11 C8.35 11 6.7 11 5 11 C5 12.32 5 13.64 5 15 C0.05 15 -4.9 15 -10 15 C-10 16.65 -10 18.3 -10 20 C-8.35 20 -6.7 20 -5 20 C-5 21.65 -5 23.3 -5 25 C-3.35 25 -1.7 25 0 25 C0 26.65 0 28.3 0 30 C-1.65 30 -3.3 30 -5 30 C-5 31.65 -5 33.3 -5 35 C-6.65 35 -8.3 35 -10 35 C-10 33.35 -10 31.7 -10 30 C-11.65 30 -13.3 30 -15 30 C-15 28.35 -15 26.7 -15 25 C-16.65 25 -18.3 25 -20 25 C-20 26.65 -20 28.3 -20 30 C-21.32 30 -22.64 30 -24 30 C-24 26.7 -24 23.4 -24 20 C-21.03 20 -18.06 20 -15 20 C-15 16.7 -15 13.4 -15 10 C-11.7 10 -8.4 10 -5 10 C-5 8.35 -5 6.7 -5 5 C-3.35 5 -1.7 5 0 5 C0 3.35 0 1.7 0 0 Z " fill="#050505" transform="translate(102,15)"/>
<path d="M0 0 C3.3 0 6.6 0 10 0 C10 1.32 10 2.64 10 4 C13.3 4 16.6 4 20 4 C20 2.68 20 1.36 20 0 C21.65 0 23.3 0 25 0 C25 1.32 25 2.64 25 4 C28.3 4 31.6 4 35 4 C35 2.68 35 1.36 35 0 C36.65 0 38.3 0 40 0 C40 2.97 40 5.94 40 9 C38.35 9 36.7 9 35 9 C35 10.65 35 12.3 35 14 C36.65 14 38.3 14 40 14 C40 18.95 40 23.9 40 29 C38.35 29 36.7 29 35 29 C34.505 28.01 34.505 28.01 34 27 C34.66 27 35.32 27 36 27 C35.505 23.04 35.505 23.04 35 19 C33.35 19 31.7 19 30 19 C30 15.7 30 12.4 30 9 C28.35 9 26.7 9 25 9 C25 7.68 25 6.36 25 5 C23.35 5 21.7 5 20 5 C20 7.97 20 10.94 20 14 C18.35 14 16.7 14 15 14 C15 12.35 15 10.7 15 9 C8.73 9 2.46 9 -4 9 C-4 7.35 -4 5.7 -4 4 C-2.68 4 -1.36 4 0 4 C0 2.68 0 1.36 0 0 Z " fill="#020202" transform="translate(111,55)"/>
<path d="M0 0 C1.65 0 3.3 0 5 0 C5 1.32 5 2.64 5 4 C8.3 4 11.6 4 15 4 C15 5.65 15 7.3 15 9 C16.65 9 18.3 9 20 9 C20 7.35 20 5.7 20 4 C23.3 4 26.6 4 30 4 C30 5.65 30 7.3 30 9 C31.32 9 32.64 9 34 9 C34 10.65 34 12.3 34 14 C32.68 14 31.36 14 30 14 C30 12.68 30 11.36 30 10 C28.35 10 26.7 10 25 10 C25 14.62 25 19.24 25 24 C23.35 24 21.7 24 20 24 C20 22.35 20 20.7 20 19 C18.35 19 16.7 19 15 19 C15 16.03 15 13.06 15 10 C13.35 10 11.7 10 10 10 C10 14.62 10 19.24 10 24 C6.7 24 3.4 24 0 24 C0 22.35 0 20.7 0 19 C1.65 19 3.3 19 5 19 C5 17.35 5 15.7 5 14 C3.35 14 1.7 14 0 14 C0 12.35 0 10.7 0 9 C1.65 9 3.3 9 5 9 C5 7.68 5 6.36 5 5 C3.35 5 1.7 5 0 5 C0 3.35 0 1.7 0 0 Z " fill="#050505" transform="translate(48,128)"/>
<path d="M0 0 C1.65 0 3.3 0 5 0 C5 1.65 5 3.3 5 5 C3.35 5 1.7 5 0 5 C0 6.32 0 7.64 0 9 C1.65 9 3.3 9 5 9 C5 12.3 5 15.6 5 19 C6.65 19 8.3 19 10 19 C10 14.05 10 9.1 10 4 C11.65 4 13.3 4 15 4 C15 12.25 15 20.5 15 29 C8.4 29 1.8 29 -5 29 C-5 25.7 -5 22.4 -5 19 C-3.35 19 -1.7 19 0 19 C0 17.35 0 15.7 0 14 C-1.65 14 -3.3 14 -5 14 C-5 10.7 -5 7.4 -5 4 C-3.35 4 -1.7 4 0 4 C0 2.68 0 1.36 0 0 Z " fill="#0C0C0C" transform="translate(14,55)"/>
<path d="M0 0 C1.65 0 3.3 0 5 0 C5 1.65 5 3.3 5 5 C6.65 5 8.3 5 10 5 C10 6.65 10 8.3 10 10 C8.35 10 6.7 10 5 10 C5 11.65 5 13.3 5 15 C6.65 15 8.3 15 10 15 C10 17.97 10 20.94 10 24 C8.35 24 6.7 24 5 24 C5 27.3 5 30.6 5 34 C3.35 34 1.7 34 0 34 C0 35.65 0 37.3 0 39 C-4.62 39 -9.24 39 -14 39 C-14 37.35 -14 35.7 -14 34 C-12.68 34 -11.36 34 -10 34 C-10 32.35 -10 30.7 -10 29 C-8.35 29 -6.7 29 -5 29 C-5 27.35 -5 25.7 -5 24 C-3.35 24 -1.7 24 0 24 C0 16.08 0 8.16 0 0 Z " fill="#020202" transform="translate(92,113)"/>
<path d="M0 0 C1.65 0 3.3 0 5 0 C5 1.65 5 3.3 5 5 C3.68 5 2.36 5 1 5 C1 6.65 1 8.3 1 10 C2.65 10 4.3 10 6 10 C6 8.35 6 6.7 6 5 C7.32 5 8.64 5 10 5 C10 6.65 10 8.3 10 10 C13.3 10 16.6 10 20 10 C20 11.32 20 12.64 20 14 C18.91730835 14.03758423 18.91730835 14.03758423 17.81274414 14.07592773 C14.562465 14.19151302 11.31250312 14.31440774 8.0625 14.4375 C6.92619141 14.47681641 5.78988281 14.51613281 4.61914062 14.55664062 C2.99975586 14.61948242 2.99975586 14.61948242 1.34765625 14.68359375 C0.34742432 14.72025146 -0.65280762 14.75690918 -1.68334961 14.79467773 C-3.96069188 14.74671841 -3.96069188 14.74671841 -5 16 C-5.23363881 17.84891946 -5.41303635 19.70488031 -5.5625 21.5625 C-5.64628906 22.57441406 -5.73007812 23.58632812 -5.81640625 24.62890625 C-5.90728516 25.80259766 -5.90728516 25.80259766 -6 27 C-7.32 26.67 -8.64 26.34 -10 26 C-9.67 22.04 -9.34 18.08 -9 14 C-15.6 14 -22.2 14 -29 14 C-29 12.68 -29 11.36 -29 10 C-27.35 10 -25.7 10 -24 10 C-24 8.35 -24 6.7 -24 5 C-22.35 5 -20.7 5 -19 5 C-19 6.65 -19 8.3 -19 10 C-14.38 10 -9.76 10 -5 10 C-5 8.35 -5 6.7 -5 5 C-3.35 5 -1.7 5 0 5 C0 3.35 0 1.7 0 0 Z " fill="#020202" transform="translate(38,79)"/>
<path d="M0 0 C0.33 0 0.66 0 1 0 C1 4.62 1 9.24 1 14 C5.62 14 10.24 14 15 14 C15 10.7 15 7.4 15 4 C16.65 4 18.3 4 20 4 C20 9 20 14 20 19 C13.4 19 6.8 19 0 19 C0 17.35 0 15.7 0 14 C-1.32 14 -2.64 14 -4 14 C-4 15.65 -4 17.3 -4 19 C-5.65 19 -7.3 19 -9 19 C-9 17.35 -9 15.7 -9 14 C-12.3 14 -15.6 14 -19 14 C-19 12.35 -19 10.7 -19 9 C-17.35 9 -15.7 9 -14 9 C-14 7.35 -14 5.7 -14 4 C-12.35 4 -10.7 4 -9 4 C-9 5.65 -9 7.3 -9 9 C-7.35 9 -5.7 9 -4 9 C-4 9.66 -4 10.32 -4 11 C-3.01 11.33 -2.02 11.66 -1 12 C-1.01160156 11.21753906 -1.02320312 10.43507813 -1.03515625 9.62890625 C-1.04417969 8.61699219 -1.05320312 7.60507813 -1.0625 6.5625 C-1.07410156 5.55316406 -1.08570312 4.54382813 -1.09765625 3.50390625 C-1 1 -1 1 0 0 Z " fill="#0E0E0E" transform="translate(33,94)"/>
<path d="M0 0 C0.78441153 6.56492112 1.10914408 12.46837378 0 19 C-1.65 19 -3.3 19 -5 19 C-5 20.65 -5 22.3 -5 24 C-7.97 24 -10.94 24 -14 24 C-14 20.7 -14 17.4 -14 14 C-15.65 14 -17.3 14 -19 14 C-19 12.35 -19 10.7 -19 9 C-17.35 9 -15.7 9 -14 9 C-14 7.35 -14 5.7 -14 4 C-13.31292969 3.87882812 -12.62585938 3.75765625 -11.91796875 3.6328125 C-10.56638672 3.38144531 -10.56638672 3.38144531 -9.1875 3.125 C-8.29417969 2.96257812 -7.40085937 2.80015625 -6.48046875 2.6328125 C-4.15854873 2.04044865 -2.2182844 0 0 0 Z " fill="#020202" transform="translate(92,94)"/>
<path d="M0 0 C1.65 0 3.3 0 5 0 C5 2.97 5 5.94 5 9 C6.65 9 8.3 9 10 9 C10 7.35 10 5.7 10 4 C11.65 4 13.3 4 15 4 C15 2.68 15 1.36 15 0 C16.32 0 17.64 0 19 0 C19 1.65 19 3.3 19 5 C17.68 5 16.36 5 15 5 C15 6.65 15 8.3 15 10 C13.35 10 11.7 10 10 10 C10 11.32 10 12.64 10 14 C11.65 14 13.3 14 15 14 C15 17.3 15 20.6 15 24 C11.7 24 8.4 24 5 24 C5 22.35 5 20.7 5 19 C3.35 19 1.7 19 0 19 C0 17.35 0 15.7 0 14 C1.65 14 3.3 14 5 14 C5 12.68 5 11.36 5 10 C1.7 10 -1.6 10 -5 10 C-5 8.02 -5 6.04 -5 4 C-3.35 4 -1.7 4 0 4 C0 2.68 0 1.36 0 0 Z " fill="#0A0A0A" transform="translate(63,11)"/>
<path d="M0 0 C1.65 0 3.3 0 5 0 C5 2.97 5 5.94 5 9 C6.65 9 8.3 9 10 9 C10 10.65 10 12.3 10 14 C11.65 14 13.3 14 15 14 C15 15.65 15 17.3 15 19 C13.35 19 11.7 19 10 19 C10 20.65 10 22.3 10 24 C8.35 24.33 6.7 24.66 5 25 C5 23.02 5 21.04 5 19 C3.35 19 1.7 19 0 19 C0 15.7 0 12.4 0 9 C-1.32 9.33 -2.64 9.66 -4 10 C-4.33 10.99 -4.66 11.98 -5 13 C-10.94 13.495 -10.94 13.495 -17 14 C-17 12.35 -17 10.7 -17 9 C-13.04 9 -9.08 9 -5 9 C-5 7.68 -5 6.36 -5 5 C-3.35 5 -1.7 5 0 5 C0 3.35 0 1.7 0 0 Z " fill="#030303" transform="translate(116,84)"/>
<path d="M0 0 C1.98 0 3.96 0 6 0 C6 2.31 6 4.62 6 7 C7.32 7 8.64 7 10 7 C10 7.66 10 8.32 10 9 C13.96 9 17.92 9 22 9 C21.67 11.64 21.34 14.28 21 17 C22.32 17 23.64 17 25 17 C25 19.97 25 22.94 25 26 C23.35 26 21.7 26 20 26 C20 24.68 20 23.36 20 22 C12.08 22 4.16 22 -4 22 C-4 21.67 -4 21.34 -4 21 C3.92 21 11.84 21 20 21 C20 19.68 20 18.36 20 17 C16.7 17 13.4 17 10 17 C10 15.35 10 13.7 10 12 C8.68 12 7.36 12 6 12 C6 13.65 6 15.3 6 17 C4.35 17 2.7 17 1 17 C1 15.35 1 13.7 1 12 C2.32 12 3.64 12 5 12 C5 10.35 5 8.7 5 7 C1.7 7 -1.6 7 -5 7 C-5 5.35 -5 3.7 -5 2 C-3.35 2 -1.7 2 0 2 C0 1.34 0 0.68 0 0 Z " fill="#141414" transform="translate(38,72)"/>
<path d="M0 0 C3.47911708 3.16283371 5.77821586 5.7239167 6.4140625 10.53515625 C6.56580882 15.66004341 6.66307274 19.91436999 3.0625 23.875 C-1.40688505 27.61681074 -5.23423859 28.84177712 -10.9375 28.875 C-13.27241639 28.55294257 -15.60592508 28.22041851 -17.9375 27.875 C-21.24464584 28.24387653 -21.24464584 28.24387653 -23.9375 28.875 C-23.751875 27.575625 -23.56625 26.27625 -23.375 24.9375 C-22.97466294 21.53730391 -23.02213824 18.62580841 -23.5625 15.25 C-24.2225107 10.61362854 -23.11433036 7.96744108 -20.9375 3.875 C-20.2775 3.875 -19.6175 3.875 -18.9375 3.875 C-18.9375 3.215 -18.9375 2.555 -18.9375 1.875 C-13.87672299 -2.66224835 -6.05397134 -2.31854222 0 0 Z M-18.1875 5.375 C-21.62014673 10.27878104 -21.32360992 14.31702176 -20.4375 20.1875 C-20.2725 21.074375 -20.1075 21.96125 -19.9375 22.875 C-19.9375 23.535 -19.9375 24.195 -19.9375 24.875 C-10.87514475 26.52610669 -10.87514475 26.52610669 -2.125 24.5625 C1.5877444 21.8153862 1.5877444 21.8153862 3.71484375 17.859375 C4.23345005 13.79577493 4.39681946 10.71460478 2.5 7 C-0.15321417 3.59844337 -1.88804514 2.27991291 -5.9375 0.875 C-11.12195116 0.24274986 -14.69039075 1.48932305 -18.1875 5.375 Z " fill="#1B1B1B" transform="translate(88.9375,67.125)"/>
<path d="M0 0 C0.66 0 1.32 0 2 0 C2.33 0.99 2.66 1.98 3 3 C5.97 3.33 8.94 3.66 12 4 C12 5.65 12 7.3 12 9 C10.35 9 8.7 9 7 9 C7 10.65 7 12.3 7 14 C9.97 14 12.94 14 16 14 C16 15.32 16 16.64 16 18 C11.38 18 6.76 18 2 18 C2 21.3 2 24.6 2 28 C0.35 28 -1.3 28 -3 28 C-3 15 -3 15 -2.0390625 13.109375 C-0.73025962 10.45240675 -0.5853216 8.19450239 -0.375 5.25 C-0.30023438 4.26515625 -0.22546875 3.2803125 -0.1484375 2.265625 C-0.09945312 1.51796875 -0.05046875 0.7703125 0 0 Z " fill="#FAFAFA" transform="translate(95,75)"/>
<path d="M0 0 C4.95 0 9.9 0 15 0 C15 4.95 15 9.9 15 15 C10.05 15 5.1 15 0 15 C0 10.05 0 5.1 0 0 Z " fill="#010101" transform="translate(126,20)"/>
<path d="M0 0 C4.95 0 9.9 0 15 0 C15 4.95 15 9.9 15 15 C10.05 15 5.1 15 0 15 C0 10.05 0 5.1 0 0 Z " fill="#010101" transform="translate(19,20)"/>
<path d="M0 0 C3.3 0 6.6 0 10 0 C10 1.65 10 3.3 10 5 C11.65 5 13.3 5 15 5 C15 12.92 15 20.84 15 29 C13.35 29 11.7 29 10 29 C10 26.03 10 23.06 10 20 C8.35 20 6.7 20 5 20 C5 18.35 5 16.7 5 15 C6.65 15 8.3 15 10 15 C10 13.35 10 11.7 10 10 C8.35 10 6.7 10 5 10 C5 8.35 5 6.7 5 5 C3.35 5 1.7 5 0 5 C0 3.35 0 1.7 0 0 Z " fill="#FDFDFD" transform="translate(92,108)"/>
<path d="M0 0 C1.65 0 3.3 0 5 0 C5 1.32 5 2.64 5 4 C6.65 4 8.3 4 10 4 C10 7.3 10 10.6 10 14 C11.65 14 13.3 14 15 14 C15 15.65 15 17.3 15 19 C13.35 19 11.7 19 10 19 C10 23.62 10 28.24 10 33 C8.35 33 6.7 33 5 33 C5 25.08 5 17.16 5 9 C3.35 9 1.7 9 0 9 C0 6.03 0 3.06 0 0 Z " fill="#FDFDFD" transform="translate(131,60)"/>
<path d="M0 0 C4.95 0 9.9 0 15 0 C15 4.62 15 9.24 15 14 C10.05 14 5.1 14 0 14 C0 9.38 0 4.76 0 0 Z " fill="#020202" transform="translate(19,128)"/>
<path d="M0 0 C4.62 0 9.24 0 14 0 C14 4.95 14 9.9 14 15 C9.38 15 4.76 15 0 15 C0 10.05 0 5.1 0 0 Z " fill="#FCFCFC" transform="translate(112,113)"/>
<path d="M0 0 C1.65 0 3.3 0 5 0 C5 4.95 5 9.9 5 15 C6.65 15 8.3 15 10 15 C10 16.65 10 18.3 10 20 C8.35 20 6.7 20 5 20 C5 21.65 5 23.3 5 25 C3.35 25 1.7 25 0 25 C0 23.35 0 21.7 0 20 C-1.65 20 -3.3 20 -5 20 C-5 18.35 -5 16.7 -5 15 C-3.35 15 -1.7 15 0 15 C0 13.35 0 11.7 0 10 C-1.65 10 -3.3 10 -5 10 C-5 8.35 -5 6.7 -5 5 C-3.35 5 -1.7 5 0 5 C0 3.35 0 1.7 0 0 Z " fill="#080808" transform="translate(53,25)"/>
<path d="M0 0 C1.65 0 3.3 0 5 0 C5 7.92 5 15.84 5 24 C6.65 24 8.3 24 10 24 C10 25.65 10 27.3 10 29 C6.7 29 3.4 29 0 29 C0 26.03 0 23.06 0 20 C-1.65 20 -3.3 20 -5 20 C-5 18.35 -5 16.7 -5 15 C-3.35 15 -1.7 15 0 15 C0 10.05 0 5.1 0 0 Z " fill="#010101" transform="translate(131,69)"/>
<path d="M0 0 C1.32 0 2.64 0 4 0 C4 3.3 4 6.6 4 10 C5.65 10 7.3 10 9 10 C9 11.65 9 13.3 9 15 C4.38 15 -0.24 15 -5 15 C-5 13.35 -5 11.7 -5 10 C-6.65 10 -8.3 10 -10 10 C-10 8.35 -10 6.7 -10 5 C-6.7 5 -3.4 5 0 5 C0 3.35 0 1.7 0 0 Z " fill="#F4F4F4" transform="translate(112,93)"/>
<path d="M0 0 C4.95 0 9.9 0 15 0 C15 4.95 15 9.9 15 15 C13.35 15 11.7 15 10 15 C10 13.35 10 11.7 10 10 C8.35 10 6.7 10 5 10 C5 8.35 5 6.7 5 5 C3.35 5 1.7 5 0 5 C0 3.35 0 1.7 0 0 Z " fill="#030303" transform="translate(136,113)"/>
<path d="M0 0 C1.65 0 3.3 0 5 0 C5 2.64 5 5.28 5 8 C5.99 8.33 6.98 8.66 8 9 C7.67 9.66 7.34 10.32 7 11 C6.34 11 5.68 11 5 11 C2.81521814 16.65472952 3.06983697 21.1449944 3.80859375 27.1328125 C3.99913327 29.98701671 3.6929991 32.23812037 3 35 C1.515 35.495 1.515 35.495 0 36 C0.12568359 35.07767578 0.12568359 35.07767578 0.25390625 34.13671875 C0.35574219 33.32847656 0.45757812 32.52023438 0.5625 31.6875 C0.66691406 30.88699219 0.77132812 30.08648437 0.87890625 29.26171875 C1.14755178 26.83182884 1.14755178 26.83182884 0 24 C-0.13156527 20.31617231 -0.16982138 17.50946415 1 14 C-0.98 14 -2.96 14 -5 14 C-5 12.35 -5 10.7 -5 9 C-3.35 9 -1.7 9 0 9 C0 6.03 0 3.06 0 0 Z " fill="#F9F9F9" transform="translate(63,60)"/>
<path d="M0 0 C1.65 0 3.3 0 5 0 C5 1.65 5 3.3 5 5 C6.65 5 8.3 5 10 5 C10 6.65 10 8.3 10 10 C8.35 10 6.7 10 5 10 C5 11.32 5 12.64 5 14 C3.35 14 1.7 14 0 14 C0 15.65 0 17.3 0 19 C-1.65 19 -3.3 19 -5 19 C-5 16.03 -5 13.06 -5 10 C-3.35 10 -1.7 10 0 10 C0 6.7 0 3.4 0 0 Z " fill="#FDFDFD" transform="translate(136,118)"/>
<path d="M0 0 C1.32 0 2.64 0 4 0 C4 3.3 4 6.6 4 10 C2.68 10 1.36 10 0 10 C0 11.65 0 13.3 0 15 C-1.65 15 -3.3 15 -5 15 C-5 13.35 -5 11.7 -5 10 C-6.65 10 -8.3 10 -10 10 C-10 7.36 -10 4.72 -10 2 C-8.35 1.67 -6.7 1.34 -5 1 C-5 2.32 -5 3.64 -5 5 C-3.68 5 -2.36 5 -1 5 C-0.67 3.35 -0.34 1.7 0 0 Z " fill="#070707" transform="translate(112,137)"/>
<path d="M0 0 C1.65 0 3.3 0 5 0 C5 1.65 5 3.3 5 5 C3.35 5 1.7 5 0 5 C0 6.32 0 7.64 0 9 C1.65 9 3.3 9 5 9 C5 12.3 5 15.6 5 19 C3.35 19 1.7 19 0 19 C0 17.35 0 15.7 0 14 C-1.65 14 -3.3 14 -5 14 C-5 10.7 -5 7.4 -5 4 C-3.35 4 -1.7 4 0 4 C0 2.68 0 1.36 0 0 Z " fill="#030303" transform="translate(14,55)"/>
<path d="M0 0 C1.98 0 3.96 0 6 0 C5.98839844 0.65226562 5.97679687 1.30453125 5.96484375 1.9765625 C5.92420845 5.91238159 5.91873897 9.55306432 6.625 13.4375 C7 16 7 16 5 19 C5 17.68 5 16.36 5 15 C3.68 15 2.36 15 1 15 C1 13.02 1 11.04 1 9 C-1.1490712 7.7391254 -1.1490712 7.7391254 -4.5 8 C-8 8 -8 8 -10 7 C-10 6.34 -10 5.68 -10 5 C-6.7 5 -3.4 5 0 5 C0 3.35 0 1.7 0 0 Z " fill="#060606" transform="translate(58,74)"/>
<path d="M0 0 C1.65 0 3.3 0 5 0 C5 4.95 5 9.9 5 15 C3.35 15 1.7 15 0 15 C0 13.35 0 11.7 0 10 C-1.65 10 -3.3 10 -5 10 C-5 8.35 -5 6.7 -5 5 C-3.35 5 -1.7 5 0 5 C0 3.35 0 1.7 0 0 Z " fill="#020202" transform="translate(53,25)"/>
<path d="M0 0 C1.65 0 3.3 0 5 0 C5 1.98 5 3.96 5 6 C5.66 6 6.32 6 7 6 C9.1519437 9.22791555 9.20086443 10.28400809 9 14 C8.01 14 7.02 14 6 14 C6 12.68 6 11.36 6 10 C2.37 10 -1.26 10 -5 10 C-5 8.35 -5 6.7 -5 5 C-3.35 5 -1.7 5 0 5 C0 3.35 0 1.7 0 0 Z " fill="#010101" transform="translate(19,98)"/>
<path d="M0 0 C0.99 0 1.98 0 3 0 C3.12375 1.11375 3.2475 2.2275 3.375 3.375 C3.6465813 7.03103677 3.6465813 7.03103677 6 9 C6.804375 8.835 7.60875 8.67 8.4375 8.5 C11 8 11 8 14 10 C13.34 11.32 12.68 12.64 12 14 C6.57299983 13.61235713 3.71237211 11.97137482 0 8 C-0.9375 4.25 -0.9375 4.25 -1 1 C-0.67 0.67 -0.34 0.34 0 0 Z " fill="#181818" transform="translate(74,74)"/>
<path d="M0 0 C1.65 0 3.3 0 5 0 C5 1.65 5 3.3 5 5 C6.65 5 8.3 5 10 5 C10 6.65 10 8.3 10 10 C6.7 10 3.4 10 0 10 C0 6.7 0 3.4 0 0 Z " fill="#030303" transform="translate(141,142)"/>
<path d="M0 0 C3.3 0 6.6 0 10 0 C10 1.65 10 3.3 10 5 C8.35 5 6.7 5 5 5 C5 6.65 5 8.3 5 10 C3.35 10 1.7 10 0 10 C0 6.7 0 3.4 0 0 Z " fill="#070707" transform="translate(92,40)"/>
<path d="M0 0 C1.65 0 3.3 0 5 0 C5 1.65 5 3.3 5 5 C6.65 5 8.3 5 10 5 C10 6.65 10 8.3 10 10 C6.7 10 3.4 10 0 10 C0 6.7 0 3.4 0 0 Z " fill="#090909" transform="translate(82,40)"/>
<path d="M0 0 C3.3 0 6.6 0 10 0 C10 3.3 10 6.6 10 10 C8.35 10 6.7 10 5 10 C5 8.35 5 6.7 5 5 C3.35 5 1.7 5 0 5 C0 3.35 0 1.7 0 0 Z " fill="#0C0C0C" transform="translate(102,35)"/>
<path d="M0 0 C1.65 0 3.3 0 5 0 C5 5 5 10 5 15 C3.35 15 1.7 15 0 15 C0 10.05 0 5.1 0 0 Z " fill="#0A0A0A" transform="translate(48,98)"/>
<path d="M0 0 C3.3 0 6.6 0 10 0 C10 1.65 10 3.3 10 5 C8.35 5 6.7 5 5 5 C5.33 6.65 5.66 8.3 6 10 C4.68 10.33 3.36 10.66 2 11 C2 11.66 2 12.32 2 13 C1.34 13 0.68 13 0 13 C0.33 11.68 0.66 10.36 1 9 C1.66 9.33 2.32 9.66 3 10 C3.33 8.02 3.66 6.04 4 4 C2.68 4 1.36 4 0 4 C0 2.68 0 1.36 0 0 Z " fill="#161616" transform="translate(68,55)"/>
<path d="M0 0 C0.33 0.66 0.66 1.32 1 2 C1.66 2 2.32 2 3 2 C3 2.99 3 3.98 3 5 C2.34 5 1.68 5 1 5 C1 5.99 1 6.98 1 8 C1.66 8 2.32 8 3 8 C2.67 8.66 2.34 9.32 2 10 C-0.64 9.67 -3.28 9.34 -6 9 C-6 6.69 -6 4.38 -6 2 C-4.02 2 -2.04 2 0 2 C0 1.34 0 0.68 0 0 Z " fill="#000000" transform="translate(25,73)"/>
<path d="M0 0 C0.99 0.66 1.98 1.32 3 2 C-2.81423674 6.26377361 -9.94057654 7.16387947 -17 7 C-17.66 5.35 -18.32 3.7 -19 2 C-17.948125 2.16048828 -17.948125 2.16048828 -16.875 2.32421875 C-11.9770241 2.9431206 -8.11809181 3.40191219 -3.5 1.4375 C-1.7675 0.7259375 -1.7675 0.7259375 0 0 Z " fill="#EFEFEF" transform="translate(90,92)"/>
<path d="M0 0 C1.65 0 3.3 0 5 0 C5 1.65 5 3.3 5 5 C3.35 5 1.7 5 0 5 C0 6.65 0 8.3 0 10 C-1.65 10 -3.3 10 -5 10 C-5 8.02 -5 6.04 -5 4 C-3.35 4 -1.7 4 0 4 C0 2.68 0 1.36 0 0 Z " fill="#1C1C1C" transform="translate(141,128)"/>
<path d="M0 0 C3.96 0 7.92 0 12 0 C12 1.65 12 3.3 12 5 C5.07 4.505 5.07 4.505 -2 4 C-1.34 2.68 -0.68 1.36 0 0 Z " fill="#010101" transform="translate(36,108)"/>
<path d="M0 0 C1.65 0 3.3 0 5 0 C5 2.97 5 5.94 5 9 C2.125 8.75 2.125 8.75 -1 8 C-2.375 5.9375 -2.375 5.9375 -3 4 C-2.34 4 -1.68 4 -1 4 C-0.67 2.68 -0.34 1.36 0 0 Z " fill="#0D0D0D" transform="translate(92,60)"/>
<path d="M0 0 C0.99 0 1.98 0 3 0 C3 2.97 3 5.94 3 9 C0.36 9 -2.28 9 -5 9 C-5 7.35 -5 5.7 -5 4 C-3.35 4 -1.7 4 0 4 C0 2.68 0 1.36 0 0 Z " fill="#010101" transform="translate(63,11)"/>
<path d="M0 0 C0.66 0 1.32 0 2 0 C2 2.97 2 5.94 2 9 C0.35 9 -1.3 9 -3 9 C-3 7.68 -3 6.36 -3 5 C-4.65 5 -6.3 5 -8 5 C-8.33 4.34 -8.66 3.68 -9 3 C-7.88625 2.87625 -6.7725 2.7525 -5.625 2.625 C-1.96896323 2.3534187 -1.96896323 2.3534187 0 0 Z " fill="#0B0B0B" transform="translate(100,55)"/>
<path d="M0 0 C3.3 0 6.6 0 10 0 C10 1.65 10 3.3 10 5 C6.7 5 3.4 5 0 5 C0 3.35 0 1.7 0 0 Z " fill="#F6F6F6" transform="translate(126,103)"/>
<path d="M0 0 C3.3 0 6.6 0 10 0 C10 1.65 10 3.3 10 5 C6.7 5 3.4 5 0 5 C0 3.35 0 1.7 0 0 Z " fill="#F4F4F4" transform="translate(48,84)"/>
<path d="M0 0 C1.65 0 3.3 0 5 0 C5 3.3 5 6.6 5 10 C3.35 10 1.7 10 0 10 C0 6.7 0 3.4 0 0 Z " fill="#040404" transform="translate(9,74)"/>
<path d="M0 0 C3.3 0 6.6 0 10 0 C10 1.65 10 3.3 10 5 C6.7 5 3.4 5 0 5 C0 3.35 0 1.7 0 0 Z " fill="#F3F3F3" transform="translate(48,74)"/>
<path d="M0 0 C1.65 0 3.3 0 5 0 C5 3.3 5 6.6 5 10 C3.35 10 1.7 10 0 10 C0 6.7 0 3.4 0 0 Z " fill="#FCFCFC" transform="translate(14,74)"/>
<path d="M0 0 C1.32 0 2.64 0 4 0 C4 1.65 4 3.3 4 5 C2.68 5 1.36 5 0 5 C0 6.65 0 8.3 0 10 C-1.65 10 -3.3 10 -5 10 C-5 8.02 -5 6.04 -5 4 C-3.35 4 -1.7 4 0 4 C0 2.68 0 1.36 0 0 Z " fill="#141414" transform="translate(78,11)"/>
<path d="M0 0 C9.57 0 19.14 0 29 0 C29 1.65 29 3.3 29 5 C27.35 5 25.7 5 24 5 C24 3.68 24 2.36 24 1 C16.08 1 8.16 1 0 1 C0 0.67 0 0.34 0 0 Z " fill="#444444" transform="translate(34,93)"/>
<path d="M0 0 C0.33 0 0.66 0 1 0 C1.625 2.8125 1.625 2.8125 2 6 C1.01 7.485 1.01 7.485 0 9 C-1.32 9 -2.64 9 -4 9 C-4.33 8.01 -4.66 7.02 -5 6 C-7.97 5.67 -10.94 5.34 -14 5 C-14 4.67 -14 4.34 -14 4 C-9.38 4 -4.76 4 0 4 C0 2.68 0 1.36 0 0 Z " fill="#828282" transform="translate(111,133)"/>
<path d="M0 0 C1.32 0 2.64 0 4 0 C4 3.3 4 6.6 4 10 C0.37 10 -3.26 10 -7 10 C-6.67 9.34 -6.34 8.68 -6 8 C-3.36 8 -0.72 8 2 8 C2 6.02 2 4.04 2 2 C1.34 2 0.68 2 0 2 C0 1.34 0 0.68 0 0 Z " fill="#0E0E0E" transform="translate(64,98)"/>
<path d="M0 0 C1.32 0 2.64 0 4 0 C4 4.29 4 8.58 4 13 C3.01 13 2.02 13 1 13 C0.67 8.71 0.34 4.42 0 0 Z " fill="#000000" transform="translate(24,59)"/>
<path d="M0 0 C0.99 0.33 1.98 0.66 3 1 C0.2201101 5.28566359 -2.36848407 6.89846089 -7 8.6171875 C-9.30942057 9.05922503 -10.78436006 8.72206123 -13 8 C-12.31292969 7.67386719 -11.62585938 7.34773438 -10.91796875 7.01171875 C-10.01691406 6.57472656 -9.11585937 6.13773437 -8.1875 5.6875 C-7.29417969 5.25824219 -6.40085937 4.82898438 -5.48046875 4.38671875 C-3.21068067 3.11778211 -1.70751829 1.93443102 0 0 Z " fill="#202020" transform="translate(91,87)"/>
<path d="M0 0 C1.65 0 3.3 0 5 0 C5.33 0.66 5.66 1.32 6 2 C7.65 2 9.3 2 11 2 C11 2.66 11 3.32 11 4 C8.59454362 5.20272819 7.05003047 5.10071472 4.375 5.0625 C3.14910156 5.04896484 3.14910156 5.04896484 1.8984375 5.03515625 C0.95871094 5.01775391 0.95871094 5.01775391 0 5 C0 3.35 0 1.7 0 0 Z " fill="#0D0D0D" transform="translate(14,103)"/>
<path d="M0 0 C-0.33 0.66 -0.66 1.32 -1 2 C-5.62 2 -10.24 2 -15 2 C-15 1.34 -15 0.68 -15 0 C-9.46245077 -2.55579195 -5.61036424 -1.62077189 0 0 Z " fill="#101010" transform="translate(82,93)"/>
<path d="M0 0 C0.99 0 1.98 0 3 0 C2.67 2.97 2.34 5.94 2 9 C0.68 9 -0.64 9 -2 9 C-2 7.35 -2 5.7 -2 4 C-1.34 4 -0.68 4 0 4 C0 2.68 0 1.36 0 0 Z " fill="#8F8F8F" transform="translate(41,50)"/>
<path d="M0 0 C1.98 0 3.96 0 6 0 C6 1.65 6 3.3 6 5 C4.02 5 2.04 5 0 5 C0 3.35 0 1.7 0 0 Z " fill="#161616" transform="translate(38,98)"/>
<path d="M0 0 C1.65 0 3.3 0 5 0 C5 1.65 5 3.3 5 5 C3.68 5 2.36 5 1 5 C1 6.65 1 8.3 1 10 C0.67 10 0.34 10 0 10 C0 6.7 0 3.4 0 0 Z " fill="#121212" transform="translate(38,79)"/>
<path d="M0 0 C1.65 0 3.3 0 5 0 C5 1.98 5 3.96 5 6 C3.35 6 1.7 6 0 6 C0 4.02 0 2.04 0 0 Z " fill="#181818" transform="translate(48,15)"/>
<path d="M0 0 C0.33 0 0.66 0 1 0 C2.28571429 8.42857143 2.28571429 8.42857143 1 13 C0.01 13.33 -0.98 13.66 -2 14 C-1.85970581 11.8537974 -1.71261836 9.70803782 -1.5625 7.5625 C-1.48128906 6.36753906 -1.40007813 5.17257813 -1.31640625 3.94140625 C-1 1 -1 1 0 0 Z " fill="#EDEDED" transform="translate(65,82)"/>
<path d="M0 0 C1.65 0 3.3 0 5 0 C5 1.32 5 2.64 5 4 C5.66 4.33 6.32 4.66 7 5 C4.36 5 1.72 5 -1 5 C-0.67 3.35 -0.34 1.7 0 0 Z " fill="#0C0C0C" transform="translate(131,55)"/>
<path d="M0 0 C0.99 0 1.98 0 3 0 C3.33 1.65 3.66 3.3 4 5 C3.34 5 2.68 5 2 5 C2 5.66 2 6.32 2 7 C1.01 6.67 0.02 6.34 -1 6 C-1.042721 4.33388095 -1.04063832 2.66617115 -1 1 C-0.67 0.67 -0.34 0.34 0 0 Z " fill="#0F0F0F" transform="translate(74,74)"/>
<path d="M0 0 C0.33 0 0.66 0 1 0 C1.33 3.96 1.66 7.92 2 12 C-0.31 12.33 -2.62 12.66 -5 13 C-4.67 12.01 -4.34 11.02 -4 10 C-2.68 10 -1.36 10 0 10 C0 6.7 0 3.4 0 0 Z " fill="#010101" transform="translate(97,93)"/>
<path d="M0 0 C1.65 0 3.3 0 5 0 C5 1.65 5 3.3 5 5 C3.35 5 1.7 5 0 5 C0 3.35 0 1.7 0 0 Z " fill="#080808" transform="translate(146,137)"/>
<path d="M0 0 C2.97 0 5.94 0 9 0 C9 1.65 9 3.3 9 5 C7.68 5 6.36 5 5 5 C5 3.68 5 2.36 5 1 C3.35 1 1.7 1 0 1 C0 0.67 0 0.34 0 0 Z " fill="#161616" transform="translate(73,137)"/>
<path d="M0 0 C1.65 0 3.3 0 5 0 C5 1.65 5 3.3 5 5 C3.35 5 1.7 5 0 5 C0 3.35 0 1.7 0 0 Z " fill="#131313" transform="translate(48,128)"/>
<path d="M0 0 C1.65 0 3.3 0 5 0 C5 1.65 5 3.3 5 5 C3.35 5 1.7 5 0 5 C0 3.35 0 1.7 0 0 Z " fill="#050505" transform="translate(82,123)"/>
<path d="M0 0 C1.65 0 3.3 0 5 0 C5 1.65 5 3.3 5 5 C3.35 5 1.7 5 0 5 C0 3.35 0 1.7 0 0 Z " fill="#080808" transform="translate(116,118)"/>
<path d="M0 0 C1.65 0 3.3 0 5 0 C5 1.65 5 3.3 5 5 C3.35 5 1.7 5 0 5 C0 3.35 0 1.7 0 0 Z " fill="#0D0D0D" transform="translate(73,118)"/>
<path d="M0 0 C1.65 0 3.3 0 5 0 C5 1.65 5 3.3 5 5 C3.35 5 1.7 5 0 5 C0 3.35 0 1.7 0 0 Z " fill="#050505" transform="translate(68,113)"/>
<path d="M0 0 C1.65 0 3.3 0 5 0 C5 1.65 5 3.3 5 5 C3.35 5 1.7 5 0 5 C0 3.35 0 1.7 0 0 Z " fill="#EBEBEB" transform="translate(48,108)"/>
<path d="M0 0 C1.65 0 3.3 0 5 0 C5 1.65 5 3.3 5 5 C3.35 5 1.7 5 0 5 C0 3.35 0 1.7 0 0 Z " fill="#060606" transform="translate(9,108)"/>
<path d="M0 0 C1.65 0 3.3 0 5 0 C5 1.65 5 3.3 5 5 C3.35 5 1.7 5 0 5 C0 3.35 0 1.7 0 0 Z " fill="#F7F7F7" transform="translate(82,103)"/>
<path d="M0 0 C1.65 0 3.3 0 5 0 C5 1.65 5 3.3 5 5 C3.35 5 1.7 5 0 5 C0 3.35 0 1.7 0 0 Z " fill="#080808" transform="translate(131,103)"/>
<path d="M0 0 C1.65 0 3.3 0 5 0 C5 1.65 5 3.3 5 5 C3.35 5 1.7 5 0 5 C0 3.35 0 1.7 0 0 Z " fill="#020202" transform="translate(9,98)"/>
<path d="M0 0 C1.65 0 3.3 0 5 0 C5 1.65 5 3.3 5 5 C3.35 5 1.7 5 0 5 C0 3.35 0 1.7 0 0 Z " fill="#E7E7E7" transform="translate(141,93)"/>
<path d="M0 0 C1.65 0 3.3 0 5 0 C5 1.65 5 3.3 5 5 C3.35 5 1.7 5 0 5 C0 3.35 0 1.7 0 0 Z " fill="#101010" transform="translate(14,55)"/>
<path d="M0 0 C1.65 0 3.3 0 5 0 C5 1.65 5 3.3 5 5 C3.35 5 1.7 5 0 5 C0 3.35 0 1.7 0 0 Z " fill="#040404" transform="translate(141,50)"/>
<path d="M0 0 C1.65 0 3.3 0 5 0 C5 1.65 5 3.3 5 5 C3.35 5 1.7 5 0 5 C0 3.35 0 1.7 0 0 Z " fill="#060606" transform="translate(126,50)"/>
<path d="M0 0 C1.65 0 3.3 0 5 0 C5 1.65 5 3.3 5 5 C3.35 5 1.7 5 0 5 C0 3.35 0 1.7 0 0 Z " fill="#040404" transform="translate(19,50)"/>
<path d="M0 0 C1.65 0 3.3 0 5 0 C5 1.65 5 3.3 5 5 C3.35 5 1.7 5 0 5 C0 3.35 0 1.7 0 0 Z " fill="#040404" transform="translate(9,50)"/>
<path d="M0 0 C1.65 0 3.3 0 5 0 C5 1.65 5 3.3 5 5 C3.35 5 1.7 5 0 5 C0 3.35 0 1.7 0 0 Z " fill="#FCFCFC" transform="translate(87,45)"/>
<path d="M0 0 C1.65 0 3.3 0 5 0 C5 1.65 5 3.3 5 5 C3.35 5 1.7 5 0 5 C0 3.35 0 1.7 0 0 Z " fill="#050505" transform="translate(97,40)"/>
<path d="M0 0 C1.65 0 3.3 0 5 0 C5 1.65 5 3.3 5 5 C3.35 5 1.7 5 0 5 C0 3.35 0 1.7 0 0 Z " fill="#060606" transform="translate(68,40)"/>
<path d="M0 0 C1.65 0 3.3 0 5 0 C5 1.65 5 3.3 5 5 C3.35 5 1.7 5 0 5 C0 3.35 0 1.7 0 0 Z " fill="#040404" transform="translate(58,40)"/>
<path d="M0 0 C1.65 0 3.3 0 5 0 C5 1.65 5 3.3 5 5 C3.35 5 1.7 5 0 5 C0 3.35 0 1.7 0 0 Z " fill="#040404" transform="translate(48,40)"/>
<path d="M0 0 C1.65 0 3.3 0 5 0 C5 1.65 5 3.3 5 5 C3.35 5 1.7 5 0 5 C0 3.35 0 1.7 0 0 Z " fill="#FEFEFE" transform="translate(92,40)"/>
<path d="M0 0 C1.65 0 3.3 0 5 0 C5 1.65 5 3.3 5 5 C3.35 5 1.7 5 0 5 C0 3.35 0 1.7 0 0 Z " fill="#FDFDFD" transform="translate(82,40)"/>
<path d="M0 0 C1.65 0 3.3 0 5 0 C5 1.65 5 3.3 5 5 C3.35 5 1.7 5 0 5 C0 3.35 0 1.7 0 0 Z " fill="#FEFEFE" transform="translate(53,40)"/>
<path d="M0 0 C1.65 0 3.3 0 5 0 C5 1.65 5 3.3 5 5 C3.35 5 1.7 5 0 5 C0 3.35 0 1.7 0 0 Z " fill="#030303" transform="translate(82,20)"/>
<path d="M0 0 C1.65 0 3.3 0 5 0 C5 1.65 5 3.3 5 5 C3.35 5 1.7 5 0 5 C0 3.35 0 1.7 0 0 Z " fill="#0E0E0E" transform="translate(92,11)"/>
<path d="M0 0 C2.31 0.33 4.62 0.66 7 1 C7 2.32 7 3.64 7 5 C5.35 5 3.7 5 2 5 C1.34 3.35 0.68 1.7 0 0 Z " fill="#C0BFC0" transform="translate(71,94)"/>
<path d="M0 0 C0.33 0 0.66 0 1 0 C1.05395478 1.62463842 1.09277195 3.24978541 1.125 4.875 C1.14820312 5.77992187 1.17140625 6.68484375 1.1953125 7.6171875 C1 10 1 10 -1 12 C-2.37520651 8.17998192 -1.74051523 4.92473073 -1 1 C-0.67 0.67 -0.34 0.34 0 0 Z " fill="#090909" transform="translate(94,76)"/>
<path d="M0 0 C1.65 0 3.3 0 5 0 C5 1.65 5 3.3 5 5 C3.35 5 1.7 5 0 5 C0 3.35 0 1.7 0 0 Z " fill="#0D0D0D" transform="translate(73,103)"/>
<path d="M0 0 C1.65 0 3.3 0 5 0 C5 1.32 5 2.64 5 4 C3.68 4.33 2.36 4.66 1 5 C0.67 3.35 0.34 1.7 0 0 Z " fill="#FDFDFD" transform="translate(73,60)"/>
<path d="M0 0 C1.65 0 3.3 0 5 0 C5 1.32 5 2.64 5 4 C3.35 4 1.7 4 0 4 C0 2.68 0 1.36 0 0 Z " fill="#070707" transform="translate(141,128)"/>
<path d="M0 0 C1.65 0 3.3 0 5 0 C5 1.32 5 2.64 5 4 C3.35 4 1.7 4 0 4 C0 2.68 0 1.36 0 0 Z " fill="#FEFEFE" transform="translate(58,89)"/>
<path d="M0 0 C1.32 0 2.64 0 4 0 C4 1.65 4 3.3 4 5 C2.68 5 1.36 5 0 5 C0 3.35 0 1.7 0 0 Z " fill="#FDFDFD" transform="translate(112,84)"/>
<path d="M0 0 C1.32 0 2.64 0 4 0 C4 1.65 4 3.3 4 5 C2.68 5 1.36 5 0 5 C0 3.35 0 1.7 0 0 Z " fill="#FDFDFD" transform="translate(39,84)"/>
<path d="M0 0 C1.32 0 2.64 0 4 0 C4 1.65 4 3.3 4 5 C2.68 5 1.36 5 0 5 C0 3.35 0 1.7 0 0 Z " fill="#FCFCFC" transform="translate(44,79)"/>
<path d="M0 0 C1.32 0 2.64 0 4 0 C4 1.65 4 3.3 4 5 C2.68 5 1.36 5 0 5 C0 3.35 0 1.7 0 0 Z " fill="#FDFDFD" transform="translate(39,74)"/>
<path d="M0 0 C1.32 0 2.64 0 4 0 C4 1.65 4 3.3 4 5 C2.68 5 1.36 5 0 5 C0 3.35 0 1.7 0 0 Z " fill="#FDFDFD" transform="translate(39,64)"/>
<path d="M0 0 C1.65 0 3.3 0 5 0 C5 1.32 5 2.64 5 4 C3.35 4 1.7 4 0 4 C0 2.68 0 1.36 0 0 Z " fill="#FEFEFE" transform="translate(92,60)"/>
<path d="M0 0 C1.65 0 3.3 0 5 0 C5 1.32 5 2.64 5 4 C3.35 4 1.7 4 0 4 C0 2.68 0 1.36 0 0 Z " fill="#FDFDFD" transform="translate(68,55)"/>
<path d="M0 0 C0.33 0 0.66 0 1 0 C1 1.98 1 3.96 1 6 C-0.32 6 -1.64 6 -3 6 C-3 7.65 -3 9.3 -3 11 C-3.33 11 -3.66 11 -4 11 C-4.1875 8.125 -4.1875 8.125 -4 5 C-3.01 4.34 -2.02 3.68 -1 3 C-0.67 2.01 -0.34 1.02 0 0 Z " fill="#242424" transform="translate(115,78)"/>
<path d="M0 0 C1.65 0 3.3 0 5 0 C4.67 1.32 4.34 2.64 4 4 C2.68 4.33 1.36 4.66 0 5 C0 3.35 0 1.7 0 0 Z " fill="#0E0E0E" transform="translate(48,30)"/>
<path d="M0 0 C1.65 0 3.3 0 5 0 C5 0.99 5 1.98 5 3 C3.35 3.33 1.7 3.66 0 4 C0 2.68 0 1.36 0 0 Z " fill="#0A0A0A" transform="translate(73,55)"/>
</svg>
